<?xml version="1.0"?>
<svg viewBox="0 0 512 512" xmlns="http://www.w3.org/2000/svg">
    <defs>
        <style>
            .cls-1{fill:#f9b7b7;}.cls-2{fill:#d27676;}.cls-3{fill:#ee9b9b;}.cls-4{fill:#0071af;}.cls-5{fill:#00b378;}.cls-6{fill:#575757;}.cls-7{fill:#6e6e6e;}.cls-8{fill:#ea8383;}.cls-9{fill:#00a16c;}.cls-10{fill:#dfdfdf;}.cls-11{fill:#bebebe;}.cls-12{fill:#7db6d6;}.cls-13{fill:#096;}.cls-14{fill:#d49c9c;}.cls-15{fill:#4a4a4a;}.cls-16{fill:#00895c;}.cls-17{fill:#005686;}.cls-18{fill:#00659d;}.cls-19{fill:#006095;}.cls-20{fill:#010202;opacity:0.15;}.cls-21{fill:#c77070;}.cls-22{fill:#cb8484;}</style>
    </defs>
    <title />
    <g data-name="/ FLAT" id="_FLAT">
        <rect class="cls-1" height="80" width="64" x="368" y="376" />
        <path class="cls-2"
            d="M419.17725,24h-38.3545A36.82272,36.82272,0,0,0,344,60.82275h0a47.99976,47.99976,0,0,0,23.3042,41.15967L384,112h32l16.6958-10.01758A47.99976,47.99976,0,0,0,456,60.82275h0A36.82272,36.82272,0,0,0,419.17725,24Z" />
        <path class="cls-1"
            d="M437.18652,142.05322,416,136V120.94434A37.89041,37.89041,0,0,1,420,104a37.89041,37.89041,0,0,0,4-16.94434V66.88721A16,16,0,0,0,405.36963,51.105l-2.63037.43848A32,32,0,0,0,376,83.10791v3.94775A37.89041,37.89041,0,0,0,380,104a37.89041,37.89041,0,0,1,4,16.94434V136l-21.18652,6.05322A48.00036,48.00036,0,0,0,328,188.20654V272a16,16,0,0,0,32,0h80a16,16,0,0,0,32,0V188.20654A48.00036,48.00036,0,0,0,437.18652,142.05322Z" />
        <path class="cls-3"
            d="M304.791,145.3689,272,136V123.31372A27.31358,27.31358,0,0,1,280,104a27.314,27.314,0,0,0,8-19.31372V56a32,32,0,0,0-64,0V84.68628A27.314,27.314,0,0,0,232,104a27.31358,27.31358,0,0,1,8,19.31372V136l-32.791,9.3689A31.99994,31.99994,0,0,0,184,176.1377V272a16,16,0,0,0,32,0h80a16,16,0,0,0,32,0V176.1377A31.99994,31.99994,0,0,0,304.791,145.3689Z" />
        <path class="cls-4"
            d="M328,256V176.1377a31.99994,31.99994,0,0,0-23.209-30.7688L272,136l-2.68726,4.03076a15.99985,15.99985,0,0,1-26.62548,0L240,136l-32.791,9.3689A31.99994,31.99994,0,0,0,184,176.1377V256h32v16h80V256Z" />
        <rect class="cls-1" height="72" width="32" x="80" y="384" />
        <rect class="cls-1" height="72" width="32" x="112" y="384" />
        <path class="cls-1"
            d="M160.791,145.3689,128,136V123.31372A27.31358,27.31358,0,0,1,136,104a27.314,27.314,0,0,0,8-19.31372V56a32,32,0,0,0-64,0V84.68628A27.314,27.314,0,0,0,88,104a27.31358,27.31358,0,0,1,8,19.31372V136l-32.791,9.3689A31.99994,31.99994,0,0,0,40,176.1377V272a16,16,0,0,0,32,0h80a16,16,0,0,0,32,0V176.1377A31.99994,31.99994,0,0,0,160.791,145.3689Z" />
        <path class="cls-5"
            d="M160.791,145.3689,128,136a35.777,35.777,0,0,1-32,0l-32.791,9.3689A31.99994,31.99994,0,0,0,40,176.1377V224H72v48h80V224h32V176.1377A31.99994,31.99994,0,0,0,160.791,145.3689Z" />
        <path class="cls-6"
            d="M144,384H80a16,16,0,0,1-16-16V312l8-40h80l8,40v56A16,16,0,0,1,144,384Z" />
        <rect class="cls-7" height="56" width="16" x="104" y="328" />
        <path class="cls-5"
            d="M96,488H64a16,16,0,0,1-16-16v0a16,16,0,0,1,16-16h48v16A16,16,0,0,1,96,488Z" />
        <path class="cls-5"
            d="M128,488h32a16,16,0,0,0,16-16v0a16,16,0,0,0-16-16H112v16A16,16,0,0,0,128,488Z" />
        <rect class="cls-6" height="184" width="80" x="216" y="272" />
        <rect class="cls-7" height="128" width="16" x="248" y="328" />
        <path class="cls-4"
            d="M240,488H208a16,16,0,0,1-16-16v0a16,16,0,0,1,16-16h48v16A16,16,0,0,1,240,488Z" />
        <path class="cls-4"
            d="M272,488h32a16,16,0,0,0,16-16v0a16,16,0,0,0-16-16H256v16A16,16,0,0,0,272,488Z" />
        <path class="cls-6"
            d="M453.16406,357.56714,440,272H360l-13.16406,85.56714A15.99991,15.99991,0,0,0,362.6499,376h74.7002A15.99991,15.99991,0,0,0,453.16406,357.56714Z" />
        <path class="cls-8"
            d="M384,488H352a16,16,0,0,1-16-16v0a16,16,0,0,1,16-16h48v16A16,16,0,0,1,384,488Z" />
        <path class="cls-8"
            d="M416,488h32a16,16,0,0,0,16-16v0a16,16,0,0,0-16-16H400v16A16,16,0,0,0,416,488Z" />
        <rect class="cls-3" height="80" width="16" x="392" y="376" />
        <rect class="cls-9" height="32" width="16" x="64" y="192" />
        <rect class="cls-3" height="40" width="16" x="104" y="384" />
        <rect class="cls-10" height="32" width="32" x="80" y="424" />
        <rect class="cls-10" height="32" width="32" x="112" y="424" />
        <rect class="cls-11" height="32" width="16" x="104" y="424" />
        <path class="cls-12" d="M264,144.99854a16.08209,16.08209,0,0,1-16,0V224h16Z" />
        <path class="cls-13" d="M72,268.426V272h80V218.50146A143.99056,143.99056,0,0,1,72,268.426Z" />
        <rect class="cls-9" height="32" width="16" x="144" y="192" />
        <path class="cls-13"
            d="M181.3764,163.44507A143.34361,143.34361,0,0,1,153.97974,224H184V176.1377A31.932,31.932,0,0,0,181.3764,163.44507Z" />
        <path class="cls-14" d="M40.00006,224A32,32,0,0,1,72,256V224Z" />
        <path class="cls-14" d="M152.00006,224v32A32,32,0,0,1,184,224Z" />
        <path class="cls-15" d="M152,272H72l-8,40v56a96.00475,96.00475,0,0,1,88.06567-95.67139Z" />
        <path class="cls-14" d="M80,384v24a23.99994,23.99994,0,0,1,24-24Z" />
        <path class="cls-14" d="M120,384v24a23.99994,23.99994,0,0,1,24-24Z" />
        <path class="cls-16"
            d="M174.58282,465.44019A32.0129,32.0129,0,0,1,144.00006,488H160a15.98057,15.98057,0,0,0,14.58282-22.55981Z" />
        <path class="cls-16"
            d="M80,488H95.99994a16.00008,16.00008,0,0,0,16-16V456A32,32,0,0,1,80,488Z" />
        <path class="cls-17"
            d="M318.58282,465.44019A32.0129,32.0129,0,0,1,288.00006,488H304a15.98057,15.98057,0,0,0,14.58282-22.55981Z" />
        <path class="cls-17"
            d="M224,488h15.99994a16.00008,16.00008,0,0,0,16-16V456A32,32,0,0,1,224,488Z" />
        <path class="cls-15" d="M216.00006,272v80A79.99992,79.99992,0,0,1,296,272Z" />
        <rect class="cls-18" height="64" width="16" x="208" y="192" />
        <path class="cls-19"
            d="M325.27173,163.22705A135.49253,135.49253,0,0,1,296,223.605V256h32V176.1377A31.9167,31.9167,0,0,0,325.27173,163.22705Z" />
        <path class="cls-19" d="M296,256V223.605a135.84228,135.84228,0,0,1-80,46.2832V272h80Z" />
        <rect class="cls-18" height="64" width="16" x="288" y="192" />
        <path class="cls-20"
            d="M328,256H296v16a15.91813,15.91813,0,0,0,1.41724,6.55957A32.01263,32.01263,0,0,1,328,256Z" />
        <path class="cls-20"
            d="M184,256h32v16a15.91813,15.91813,0,0,1-1.41724,6.55957A32.01263,32.01263,0,0,0,184,256Z" />
        <path class="cls-15"
            d="M440.04614,272.30029,440,272H360l-11.16772,72.59106A104.07309,104.07309,0,0,1,440.04614,272.30029Z" />
        <path class="cls-14" d="M368,376v64a64,64,0,0,1,64-64Z" />
        <path class="cls-21"
            d="M462.58282,465.44019A32.0129,32.0129,0,0,1,432.00006,488H448a15.98057,15.98057,0,0,0,14.58282-22.55981Z" />
        <path class="cls-21"
            d="M368,488h15.99994a16.00008,16.00008,0,0,0,16-16V456A32,32,0,0,1,368,488Z" />
        <path class="cls-8"
            d="M437.18652,142.05322,416,136l-1.94116,1.94116A48,48,0,0,0,400,171.88232a48,48,0,0,0-14.05884-33.94116L384,136l-21.18652,6.05322a47.93281,47.93281,0,0,0-26.022,18.47461l1.834,1.22266A48,48,0,0,1,360,201.68872V272h80V196.56128a47.98575,47.98575,0,0,1,20.605-39.39014A47.90462,47.90462,0,0,0,437.18652,142.05322Z" />
        <path class="cls-21"
            d="M360,269.88818V272h80V223.62549A135.85776,135.85776,0,0,1,360,269.88818Z" />
        <path class="cls-22"
            d="M408,380.66992V376H392v14.05664A63.92606,63.92606,0,0,1,408,380.66992Z" />
    </g>
</svg>